<?xml version="1.0" standalone="no"?>
<!DOCTYPE svg PUBLIC "-//W3C//DTD SVG 20010904//EN"
 "http://www.w3.org/TR/2001/REC-SVG-20010904/DTD/svg10.dtd">
<svg version="1.0" xmlns="http://www.w3.org/2000/svg"
 width="16.000000pt" height="16.000000pt" viewBox="0 0 16.000000 16.000000"
 preserveAspectRatio="xMidYMid meet">
<metadata>
Created by potrace 1.11, written by Peter Selinger 2001-2013
</metadata>
<g transform="translate(0.000000,16.000000) scale(0.003265,-0.003265)"
fill="#000000" stroke="none">
<path d="M1473 4726 c-65 -21 -120 -65 -148 -121 -22 -42 -141 -586 -269
-1230 -20 -96 -51 -248 -81 -390 -33 -155 -48 -226 -61 -295 -3 -13 -12 -56
-20 -95 -9 -38 -17 -79 -19 -90 -25 -123 -202 -976 -211 -1015 -3 -14 -8 -34
-10 -45 -2 -11 -39 -194 -83 -406 -44 -213 -82 -399 -85 -413 -3 -15 -12 -61
-22 -102 -19 -86 -14 -145 15 -202 25 -47 84 -103 141 -133 l45 -24 495 3
c611 3 742 7 803 26 26 8 47 12 47 10 0 -2 43 12 96 31 192 69 423 202 590
339 289 239 440 493 448 754 7 228 -57 412 -308 887 -85 160 -165 347 -205
480 -12 39 -26 84 -31 100 -22 71 -53 251 -67 385 -9 86 -9 420 -1 490 15 114
20 147 38 225 24 104 49 180 95 290 46 111 78 171 172 314 84 129 95 173 55
214 l-23 22 -677 2 c-530 1 -686 -1 -719 -11z m867 -271 c0 -5 -9 -54 -21
-110 -23 -112 -64 -207 -106 -247 -50 -48 -180 -87 -198 -59 -4 7 -84 11 -236
11 -126 0 -229 4 -229 8 0 9 88 382 94 397 5 13 696 14 696 0z m-136 -607 c-7
-35 -15 -74 -17 -88 -3 -14 -8 -36 -11 -50 -3 -14 -8 -36 -10 -50 -2 -14 -15
-81 -30 -150 -14 -69 -59 -291 -101 -494 -48 -236 -82 -381 -95 -405 -25 -44
-72 -78 -136 -97 -59 -17 -84 -18 -84 -1 0 11 -49 13 -245 13 l-246 -1 5 30
c2 17 11 62 20 100 14 66 18 85 31 153 3 15 10 43 15 62 5 19 11 51 14 70 3
19 12 67 22 105 9 39 18 81 20 95 3 14 14 68 25 120 66 307 130 617 132 633 1
16 25 17 352 17 l352 0 -13 -62z"/>
<path d="M3467 4724 c-94 -18 -172 -55 -191 -91 -8 -16 -34 -46 -58 -65 -252
-206 -405 -518 -447 -908 -9 -88 -8 -448 3 -510 3 -19 8 -55 11 -80 17 -147
62 -324 120 -475 43 -111 79 -187 217 -460 166 -325 237 -571 233 -800 -1
-108 -5 -129 -34 -208 -52 -144 -137 -295 -235 -422 -109 -140 -294 -304 -410
-362 -98 -49 -124 -76 -142 -147 l-5 -22 533 1 c293 1 551 5 573 9 62 12 160
50 221 87 174 105 386 468 443 759 27 136 30 175 27 340 -4 171 -6 193 -27
295 -6 28 -12 59 -15 70 -11 58 -58 197 -98 292 -58 137 -137 279 -264 474
-55 85 -121 196 -146 247 -104 206 -163 457 -170 722 -3 93 31 249 83 377 102
255 299 508 526 673 90 66 121 94 213 193 l26 28 -459 -2 c-333 -1 -479 -5
-528 -15z"/>
</g>
</svg>
